#N canvas 298 25 1285 752 12;
#N canvas 34 59 1234 752 buffers 0;
#X obj 69 55 table buffer1;
#X obj 68 85 table buffer2;
#X obj 69 116 table buffer3;
#X obj 67 150 table buffer4;
#X obj 66 181 table buffer5;
#X obj 67 211 table buffer6;
#X obj 69 244 table buffer7;
#X obj 68 274 table buffer8;
#X obj 69 305 table buffer9;
#X obj 67 339 table buffer10;
#X obj 205 56 table buffer11;
#X obj 204 86 table buffer12;
#X obj 205 117 table buffer13;
#X obj 203 151 table buffer14;
#X obj 202 181 table buffer15;
#X obj 203 212 table buffer16;
#X obj 205 245 table buffer17;
#X obj 204 275 table buffer18;
#X obj 205 306 table buffer19;
#X obj 203 340 table buffer20;
#X obj 804 118 loadbang;
#X obj 804 169 t f b;
#X obj 803 204 until;
#X obj 804 249 f;
#X floatatom 805 276 5 0 0 0 - - - 0;
#X obj 842 252 + 1;
#X obj 1032 334 makefilename buffer%d;
#X obj 805 369 pack s s;
#X obj 807 469 soundfiler;
#X obj 355 58 table buffer21;
#X obj 354 88 table buffer22;
#X obj 355 119 table buffer23;
#X obj 353 153 table buffer24;
#X obj 352 183 table buffer25;
#X obj 353 214 table buffer26;
#X obj 355 247 table buffer27;
#X obj 354 277 table buffer28;
#X obj 355 308 table buffer29;
#X obj 353 342 table buffer30;
#X obj 494 56 table buffer31;
#X obj 493 86 table buffer32;
#X obj 494 116 table buffer33;
#X obj 492 151 table buffer34;
#X obj 491 181 table buffer35;
#X obj 492 212 table buffer36;
#X obj 494 245 table buffer37;
#X obj 493 275 table buffer38;
#X obj 494 306 table buffer39;
#X obj 492 340 table buffer40;
#X obj 624 54 table buffer41;
#X obj 623 84 table buffer42;
#X obj 624 115 table buffer43;
#X obj 622 149 table buffer44;
#X obj 621 179 table buffer45;
#X obj 622 210 table buffer46;
#X obj 624 243 table buffer47;
#X obj 623 273 table buffer48;
#X obj 624 304 table buffer49;
#X obj 623 338 table buffer50;
#X obj 68 402 table buffer51;
#X obj 67 432 table buffer52;
#X obj 68 463 table buffer53;
#X obj 66 497 table buffer54;
#X obj 65 527 table buffer55;
#X obj 66 558 table buffer56;
#X obj 68 591 table buffer57;
#X obj 67 621 table buffer58;
#X obj 68 652 table buffer59;
#X obj 66 686 table buffer60;
#X obj 204 406 table buffer61;
#X obj 203 436 table buffer62;
#X obj 204 467 table buffer63;
#X obj 202 501 table buffer64;
#X obj 201 531 table buffer65;
#X obj 202 562 table buffer66;
#X obj 205 595 table buffer67;
#X obj 204 656 table buffer69;
#X obj 202 690 table buffer70;
#X obj 203 625 table buffer68;
#X msg 808 398 read -resize \$1 \$2;
#X msg 856 206 1;
#X msg 804 142 64;
#X obj 806 332 makefilename Samples/Sample%d.wav;
#X connect 20 0 81 0;
#X connect 21 0 22 0;
#X connect 21 1 80 0;
#X connect 22 0 23 0;
#X connect 23 0 24 0;
#X connect 23 0 25 0;
#X connect 24 0 26 0;
#X connect 24 0 82 0;
#X connect 25 0 23 1;
#X connect 26 0 27 1;
#X connect 27 0 79 0;
#X connect 79 0 28 0;
#X connect 80 0 23 1;
#X connect 81 0 21 0;
#X connect 82 0 27 0;
#X restore 234 561 pd buffers;
#X obj 427 315 pack 0 0 0, f 17;
#X obj 427 286 - 1;
#X obj 72 632 s release;
#X floatatom 71 556 5 0 0 0 - - - 0;
#X obj 124 557 loadbang;
#X obj 426 232 makenote 100 3000;
#X msg 125 595 3000;
#X obj 429 -4 r bonk-cooked;
#X obj 34 253 bonk~, f 7;
#X obj 79 352 s bonk-cooked;
#X msg 178 77 mask 4 0.7;
#X msg 186 155 attack-frames 1;
#X obj 145 -15 loadbang;
#X obj 427 344 clone sample_player 20, f 18;
#X obj 426 259 poly 20 1, f 17;
#X msg 149 33 thresh 2 30;
#N canvas 34 59 1234 752 templates 0;
#X obj 68 327 outlet;
#X obj 121 146 loadbang;
#X msg 117 204 read templates1.txt;
#X msg 305 209 read templates2.txt;
#X obj 298 322 outlet;
#X connect 1 0 2 0;
#X connect 1 0 3 0;
#X connect 2 0 0 0;
#X connect 3 0 4 0;
#X restore 268 84 pd templates;
#X obj 35 -3 adc~ 1 2 3;
#X msg 191 184 minvel 20;
#X obj 427 420 dac~ 1 2 3 4;
#X obj 540 136 div 8;
#X obj 540 86 - 3;
#X obj 881 331 tabplay~ loop1;
#X obj 1120 326 tabplay~ loop2;
#X obj 880 533 dac~ 1 2 3 4, f 22;
#X msg 881 301 \$1 \$2;
#X obj 881 271 pack f f;
#X obj 880 205 *;
#X floatatom 880 229 4 0 0 0 - - - 0;
#X obj 934 226 r barDuration;
#X obj 896 177 r barDuration;
#X obj 1296 262 bng 15 250 50 0 empty empty empty 17 7 0 10 #fcfcfc
#000000 #000000;
#X obj 1292 136 bng 15 250 50 0 empty empty empty 17 7 0 10 #fcfcfc
#000000 #000000;
#X obj 1292 156 t b b;
#X msg 1328 267 set \$1;
#N canvas 122 25 1325 851 random 0;
#X obj 162 86 inlet;
#X obj 91 521 outlet;
#X floatatom 159 189 5 0 0 0 - - - 0;
#X obj 159 212 t b f f;
#X obj 114 336 f;
#X floatatom 216 248 5 0 0 0 - - - 0;
#X floatatom 281 256 5 0 0 0 - - - 0;
#X obj 181 273 f;
#X obj 183 338 t f f;
#X obj 115 426 f;
#X obj 115 372 sel 0;
#X obj 246 307 ==;
#X obj 83 249 sel 1;
#X obj 159 165 random 10;
#X connect 0 0 13 0;
#X connect 2 0 3 0;
#X connect 3 0 4 0;
#X connect 3 1 7 0;
#X connect 3 2 5 0;
#X connect 4 0 10 0;
#X connect 4 0 12 0;
#X connect 5 0 11 0;
#X connect 6 0 11 1;
#X connect 7 0 8 0;
#X connect 8 0 6 0;
#X connect 8 1 9 1;
#X connect 9 0 1 0;
#X connect 10 0 9 0;
#X connect 11 0 4 1;
#X connect 12 0 13 0;
#X connect 13 0 2 0;
#X restore 1326 179 pd random numbers;
#X msg 1120 294 \$1 \$2;
#X obj 1120 264 pack f f;
#X obj 1119 198 *;
#X floatatom 1119 222 4 0 0 0 - - - 0;
#X obj 1173 219 r barDuration;
#X obj 1135 170 r barDuration;
#X obj 878 124 sel 0 1;
#X obj 878 67 random 100;
#X obj 878 91 > 60;
#N canvas 5 25 952 855 panner 0;
#X obj 60 48 inlet~ signal;
#X obj 215 46 inlet control;
#X obj 215 70 / 4;
#X floatatom 215 94 5 0 0 0 - - - 0;
#X obj 215 123 + 0.75;
#X msg 215 157 \$1 10;
#X obj 215 181 line~;
#X obj 215 207 cos~;
#X obj 196 235 *~;
#X obj 64 269 *~;
#X obj 64 316 outlet~ left;
#X obj 196 317 outlet~ right;
#X obj 82 239 cos~;
#X obj 81 208 line~;
#X msg 82 177 \$1 10;
#X connect 0 0 8 0;
#X connect 0 0 9 0;
#X connect 1 0 2 0;
#X connect 2 0 3 0;
#X connect 3 0 4 0;
#X connect 3 0 14 0;
#X connect 4 0 5 0;
#X connect 5 0 6 0;
#X connect 6 0 7 0;
#X connect 7 0 8 1;
#X connect 8 0 11 0;
#X connect 9 0 10 0;
#X connect 12 0 9 1;
#X connect 13 0 12 0;
#X connect 14 0 13 0;
#X restore 883 454 pd panner;
#N canvas 5 25 848 855 panner 0;
#X obj 60 48 inlet~ signal;
#X obj 215 46 inlet control;
#X obj 215 70 / 4;
#X floatatom 215 94 5 0 0 0 - - - 0;
#X obj 215 123 + 0.75;
#X msg 215 157 \$1 10;
#X obj 215 181 line~;
#X obj 215 207 cos~;
#X obj 196 235 *~;
#X obj 64 269 *~;
#X obj 64 316 outlet~ left;
#X obj 196 317 outlet~ right;
#X obj 82 239 cos~;
#X obj 81 208 line~;
#X msg 82 177 \$1 10;
#X connect 0 0 8 0;
#X connect 0 0 9 0;
#X connect 1 0 2 0;
#X connect 2 0 3 0;
#X connect 3 0 4 0;
#X connect 3 0 14 0;
#X connect 4 0 5 0;
#X connect 5 0 6 0;
#X connect 6 0 7 0;
#X connect 7 0 8 1;
#X connect 8 0 11 0;
#X connect 9 0 10 0;
#X connect 12 0 9 1;
#X connect 13 0 12 0;
#X connect 14 0 13 0;
#X restore 881 500 pd panner;
#N canvas 5 25 848 855 panner 0;
#X obj 60 48 inlet~ signal;
#X obj 215 46 inlet control;
#X obj 215 70 / 4;
#X floatatom 215 94 5 0 0 0 - - - 0;
#X obj 215 123 + 0.75;
#X msg 215 157 \$1 10;
#X obj 215 181 line~;
#X obj 215 207 cos~;
#X obj 196 235 *~;
#X obj 64 269 *~;
#X obj 64 316 outlet~ left;
#X obj 196 317 outlet~ right;
#X obj 82 239 cos~;
#X obj 81 208 line~;
#X msg 82 177 \$1 10;
#X connect 0 0 8 0;
#X connect 0 0 9 0;
#X connect 1 0 2 0;
#X connect 2 0 3 0;
#X connect 3 0 4 0;
#X connect 3 0 14 0;
#X connect 4 0 5 0;
#X connect 5 0 6 0;
#X connect 6 0 7 0;
#X connect 7 0 8 1;
#X connect 8 0 11 0;
#X connect 9 0 10 0;
#X connect 12 0 9 1;
#X connect 13 0 12 0;
#X connect 14 0 13 0;
#X restore 970 500 pd panner;
#X obj 804 297 r toLoops;
#X obj 1042 292 r toLoops;
#X obj 1292 104 r toFinal;
#N canvas 467 30 1001 879 Activação 0;
#X obj 72 38 inlet;
#X obj 278 837 outlet;
#X obj 351 356 bng 15 250 50 0 empty empty empty 17 7 0 10 #fcfcfc
#000000 #000000;
#X floatatom 413 186 0 0 0 0 - - - 0;
#X obj 413 160 env~;
#X obj 413 209 sel 0;
#X obj 356 272 spigot 1;
#X msg 410 235 1;
#X msg 452 234 0;
#X msg 381 655 stop;
#X obj 381 516 *, f 6;
#X obj 381 487 + 1;
#X obj 352 421 t b b;
#X obj 381 463 random 6;
#X floatatom 381 547 11 0 0 0 - - - 0;
#X obj 381 577 delay 1000 1 samp;
#X text 438 357 Activação loop;
#X text 445 519 Duração frase loop;
#X obj 421 488 r barDuration;
#X obj 381 601 t b b;
#X obj 170 133 bng 15 250 50 0 empty empty empty 17 7 0 10 #fcfcfc
#000000 #000000;
#X obj 170 157 t b b b;
#X obj 129 502 spigot;
#X msg 172 191 1;
#X msg 211 191 0;
#X msg 248 194 0;
#X obj 171 289 int;
#X floatatom 171 346 5 0 0 0 - - - 0;
#X obj 170 416 tgl 15 0 empty empty empty 17 7 0 10 #fcfcfc #000000
#000000 0 1;
#X obj 170 440 change;
#X obj 236 453 sel 0;
#X obj 131 537 bng 15 250 50 0 empty empty empty 17 7 0 10 #fcfcfc
#000000 #000000;
#X obj 133 565 int;
#X obj 130 688 sel 1;
#X obj 168 746 bng 15 250 50 0 empty empty empty 17 7 0 10 #fcfcfc
#000000 #000000;
#X obj 135 603 + 1;
#X obj 130 715 t b b;
#X floatatom 194 561 5 0 0 0 - - - 0;
#X floatatom 202 633 5 0 0 0 - - - 0;
#X obj 129 663 change;
#X msg 129 794 -1;
#X obj 130 769 delay 10;
#X obj 168 471 t f f;
#X obj 380 692 s toLoops;
#X obj 447 657 s toFinal;
#X text 443 624 Stop Loop + Activar som final;
#X obj 458 89 inlet~;
#X obj 171 238 metro 10;
#X obj 172 317 + 10;
#X msg 235 487 -1;
#X obj 171 381 < 500;
#X obj 130 636 >= 3;
#X connect 0 0 20 0;
#X connect 2 0 12 0;
#X connect 3 0 5 0;
#X connect 4 0 3 0;
#X connect 5 0 7 0;
#X connect 5 1 8 0;
#X connect 6 0 2 0;
#X connect 7 0 6 1;
#X connect 8 0 6 1;
#X connect 9 0 43 0;
#X connect 10 0 14 0;
#X connect 11 0 10 0;
#X connect 12 0 1 0;
#X connect 12 1 13 0;
#X connect 13 0 11 0;
#X connect 14 0 15 0;
#X connect 15 0 19 0;
#X connect 18 0 10 1;
#X connect 19 0 9 0;
#X connect 19 1 44 0;
#X connect 20 0 21 0;
#X connect 21 0 23 0;
#X connect 21 1 24 0;
#X connect 21 2 22 0;
#X connect 22 0 31 0;
#X connect 23 0 47 0;
#X connect 24 0 26 1;
#X connect 25 0 47 0;
#X connect 26 0 48 0;
#X connect 27 0 50 0;
#X connect 28 0 29 0;
#X connect 29 0 42 0;
#X connect 30 0 25 0;
#X connect 30 0 49 0;
#X connect 31 0 32 0;
#X connect 32 0 35 0;
#X connect 33 0 36 0;
#X connect 35 0 32 1;
#X connect 35 0 38 0;
#X connect 35 0 51 0;
#X connect 36 0 41 0;
#X connect 36 1 34 0;
#X connect 36 1 6 0;
#X connect 39 0 33 0;
#X connect 40 0 32 0;
#X connect 41 0 40 0;
#X connect 42 0 22 1;
#X connect 42 0 37 0;
#X connect 42 1 30 0;
#X connect 46 0 4 0;
#X connect 47 0 26 0;
#X connect 48 0 27 0;
#X connect 48 0 26 1;
#X connect 49 0 32 0;
#X connect 50 0 28 0;
#X connect 51 0 39 0;
#X restore 875 28 pd Activação loop;
#N canvas 122 25 1325 851 random 0;
#X obj 162 86 inlet;
#X obj 91 521 outlet;
#X floatatom 159 189 5 0 0 0 - - - 0;
#X obj 159 212 t b f f;
#X obj 114 336 f;
#X floatatom 216 248 5 0 0 0 - - - 0;
#X floatatom 281 256 5 0 0 0 - - - 0;
#X obj 181 273 f;
#X obj 183 338 t f f;
#X obj 115 426 f;
#X obj 115 372 sel 0;
#X obj 246 307 ==;
#X obj 83 249 sel 1;
#X obj 159 165 random 8;
#X connect 0 0 13 0;
#X connect 2 0 3 0;
#X connect 3 0 4 0;
#X connect 3 1 7 0;
#X connect 3 2 5 0;
#X connect 4 0 10 0;
#X connect 4 0 12 0;
#X connect 5 0 11 0;
#X connect 6 0 11 1;
#X connect 7 0 8 0;
#X connect 8 0 6 0;
#X connect 8 1 9 1;
#X connect 9 0 1 0;
#X connect 10 0 9 0;
#X connect 11 0 4 1;
#X connect 12 0 13 0;
#X connect 13 0 2 0;
#X restore 879 152 pd random numbers;
#N canvas 122 25 1325 851 random 0;
#X obj 162 86 inlet;
#X obj 91 521 outlet;
#X floatatom 159 189 5 0 0 0 - - - 0;
#X obj 159 212 t b f f;
#X obj 114 336 f;
#X floatatom 216 248 5 0 0 0 - - - 0;
#X floatatom 281 256 5 0 0 0 - - - 0;
#X obj 181 273 f;
#X obj 183 338 t f f;
#X obj 115 426 f;
#X obj 115 372 sel 0;
#X obj 246 307 ==;
#X obj 83 249 sel 1;
#X obj 159 165 random 8;
#X connect 0 0 13 0;
#X connect 2 0 3 0;
#X connect 3 0 4 0;
#X connect 3 1 7 0;
#X connect 3 2 5 0;
#X connect 4 0 10 0;
#X connect 4 0 12 0;
#X connect 5 0 11 0;
#X connect 6 0 11 1;
#X connect 7 0 8 0;
#X connect 8 0 6 0;
#X connect 8 1 9 1;
#X connect 9 0 1 0;
#X connect 10 0 9 0;
#X connect 11 0 4 1;
#X connect 12 0 13 0;
#X connect 13 0 2 0;
#X restore 1113 145 pd random numbers;
#N canvas 34 59 1234 752 buffers_loops 0;
#X obj 46 39 table loop1;
#X obj 44 66 table loop2;
#X obj 146 240 soundfiler;
#X obj 145 8 loadbang;
#X msg 189 56 read -resize Samples/Loop1.wav loop1;
#X msg 195 85 read -resize Samples/Loop2.wav loop2;
#X connect 3 0 4 0;
#X connect 3 0 5 0;
#X connect 4 0 2 0;
#X connect 5 0 2 0;
#X restore 234 591 pd buffers_loops;
#N canvas 34 59 1176 809 group 0;
#X obj 224 143 unpack 0 0 0;
#X obj 378 120 unpack 0 0 0;
#X obj 277 589 >;
#X obj 278 626 sel 1 0;
#X obj 276 559 int;
#X obj 185 264 int;
#X msg 185 233 bang;
#X obj 185 288 + 1;
#X floatatom 185 314 5 0 0 0 - - - 0;
#X msg 232 233 -1;
#X obj 265 171 t f f;
#X obj 313 555 int;
#X obj 280 263 int;
#X msg 280 232 bang;
#X obj 280 287 + 1;
#X floatatom 280 320 5 0 0 0 - - - 0;
#X msg 327 232 -1;
#X obj 418 165 t f f;
#X obj 185 355 +;
#X obj 185 381 == 2;
#X obj 185 435 sel 1;
#X obj 186 409 change;
#X obj 185 459 t b b;
#X obj 280 343 t b f;
#X msg 315 520 0;
#X obj 223 73 inlet;
#X obj 379 70 inlet;
#X obj 275 750 outlet;
#X obj 223 97 t l l;
#X obj 277 669 list;
#X obj 379 94 t l l;
#X obj 410 671 list;
#X obj 277 703 list prepend 1;
#X obj 401 699 list prepend 2;
#X connect 0 1 10 0;
#X connect 1 1 17 0;
#X connect 2 0 3 0;
#X connect 3 0 29 0;
#X connect 3 1 31 0;
#X connect 4 0 2 0;
#X connect 5 0 7 0;
#X connect 6 0 5 0;
#X connect 7 0 5 1;
#X connect 7 0 8 0;
#X connect 8 0 18 0;
#X connect 9 0 5 0;
#X connect 10 0 6 0;
#X connect 10 1 4 1;
#X connect 11 0 2 1;
#X connect 12 0 14 0;
#X connect 13 0 12 0;
#X connect 14 0 12 1;
#X connect 14 0 15 0;
#X connect 15 0 23 0;
#X connect 16 0 12 0;
#X connect 17 0 13 0;
#X connect 17 1 11 1;
#X connect 18 0 19 0;
#X connect 19 0 21 0;
#X connect 20 0 22 0;
#X connect 21 0 20 0;
#X connect 22 0 9 0;
#X connect 22 0 16 0;
#X connect 22 0 24 0;
#X connect 22 1 11 0;
#X connect 22 1 4 0;
#X connect 23 0 18 0;
#X connect 23 1 18 1;
#X connect 24 0 4 1;
#X connect 24 0 11 1;
#X connect 25 0 28 0;
#X connect 26 0 30 0;
#X connect 28 0 0 0;
#X connect 28 1 29 1;
#X connect 29 0 32 0;
#X connect 30 0 1 0;
#X connect 30 1 31 1;
#X connect 31 0 33 0;
#X connect 32 0 27 0;
#X connect 33 0 27 0;
#X restore 78 301 pd group separation;
#X obj 171 256 bonk~, f 7;
#X obj 429 31 unpack 0 0 0 0;
#N canvas 34 59 1234 752 idle 0;
#X obj 558 730 outlet~;
#X obj 569 147 env~;
#X msg 541 305 1;
#X obj 565 343 metro 1000;
#X obj 569 177 change;
#X obj 566 385 int;
#X obj 566 409 + 1;
#X obj 605 277 t b 0;
#X msg 605 301 -1;
#X obj 555 626 bng 15 250 50 0 empty empty empty 17 7 0 10 #fcfcfc
#000000 #000000;
#X obj 551 520 t b b;
#X msg 587 621 set \$1;
#X obj 697 671 line~;
#X obj 558 680 *~;
#X obj 605 484 t b b b;
#X obj 565 463 t b b;
#X msg 529 483 -1;
#X msg 763 648 0 1000;
#N canvas 94 26 1204 692 random 0;
#X obj 150 82 inlet;
#X obj 90 521 outlet;
#X floatatom 151 227 5 0 0 0 - - - 0;
#X obj 90 476 f;
#X obj 198 302 f;
#X obj 164 162 t f f b;
#X obj 151 340 ==;
#X obj 151 406 bng 15 250 50 0 empty empty empty 17 7 0 10 #fcfcfc
#000000 #000000;
#X obj 343 227 loadbang;
#X obj 151 370 sel 0 1;
#X floatatom 198 326 5 0 0 0 - - - 0;
#X obj 151 259 t f f;
#X obj 163 125 random 10;
#X obj 347 264 random 10;
#X connect 0 0 12 0;
#X connect 2 0 11 0;
#X connect 3 0 1 0;
#X connect 4 0 6 1;
#X connect 4 0 10 0;
#X connect 5 0 2 0;
#X connect 5 1 4 1;
#X connect 5 2 4 0;
#X connect 6 0 9 0;
#X connect 7 0 3 0;
#X connect 8 0 13 0;
#X connect 9 0 7 0;
#X connect 9 1 12 0;
#X connect 11 0 6 0;
#X connect 11 1 3 1;
#X connect 12 0 5 0;
#X connect 13 0 3 1;
#X restore 586 544 pd random numbers;
#X obj 569 203 == 0;
#X obj 570 245 sel 1 0;
#X obj 565 435 sel 60;
#X obj 700 611 delay 15000;
#X obj 568 109 r~ activeSound;
#X obj 546 277 t b b;
#X obj 651 379 random 35;
#X obj 651 406 + 40;
#X msg 586 593 symbol buffer\$1;
#X obj 585 569 + 45;
#X obj 558 651 tabplay~ buffer45;
#X msg 697 642 1 1200;
#X connect 1 0 4 0;
#X connect 2 0 3 0;
#X connect 3 0 5 0;
#X connect 4 0 19 0;
#X connect 5 0 6 0;
#X connect 6 0 5 1;
#X connect 6 0 21 0;
#X connect 7 0 8 0;
#X connect 7 1 3 0;
#X connect 8 0 5 0;
#X connect 9 0 29 0;
#X connect 10 0 9 0;
#X connect 10 1 18 0;
#X connect 11 0 29 0;
#X connect 12 0 13 1;
#X connect 13 0 0 0;
#X connect 14 0 30 0;
#X connect 14 0 22 0;
#X connect 14 1 10 0;
#X connect 15 0 16 0;
#X connect 15 1 14 0;
#X connect 16 0 5 0;
#X connect 17 0 12 0;
#X connect 18 0 28 0;
#X connect 19 0 20 0;
#X connect 20 0 24 0;
#X connect 20 1 7 0;
#X connect 21 0 15 0;
#X connect 22 0 17 0;
#X connect 23 0 1 0;
#X connect 24 0 2 0;
#X connect 24 1 25 0;
#X connect 25 0 26 0;
#X connect 26 0 21 1;
#X connect 27 0 11 0;
#X connect 28 0 27 0;
#X connect 29 0 13 0;
#X connect 30 0 12 0;
#X restore 746 417 pd idle mode;
#X obj 567 416 s~ activeSound;
#X obj 756 532 s~ activeSound;
#X obj 463 107 sel 0 1;
#X msg 458 145 0;
#X msg 488 149 1;
#X obj 428 184 spigot;
#X msg 1327 241 symbol buffer\$1;
#X obj 1326 205 + 45;
#X obj 1301 304 tabplay~ buffer45;
#X obj 540 111 * 5;
#X obj 746 441 *~ 1;
#X obj 833 355 rev1~;
#X obj 731 295 loadbang;
#X msg 731 319 40;
#X obj 1301 328 *~ 0.9;
#X obj 886 424 *~;
#X obj 886 400 *~ 1.8;
#X obj 540 164 + 50;
#X obj 833 381 *~ 0.3;
#N canvas 34 59 1234 752 modulators 0;
#X obj 152 298 outlet;
#X obj 240 299 outlet;
#X obj 326 298 outlet;
#X obj 150 201 +~ 1;
#X obj 150 225 /~ 2;
#X obj 239 204 +~ 1;
#X obj 239 228 /~ 2;
#X obj 325 202 +~ 1;
#X obj 325 226 /~ 2;
#X obj 149 106 loadbang;
#X msg 291 143 0.25;
#X msg 377 143 0.75;
#X obj 151 252 snapshot~;
#X obj 239 252 snapshot~;
#X obj 325 250 snapshot~;
#X obj 149 141 metro 100;
#X obj 150 177 osc~ 0.2;
#X obj 239 180 osc~ 0.3;
#X obj 325 178 osc~ 0.4;
#X connect 3 0 4 0;
#X connect 4 0 12 0;
#X connect 5 0 6 0;
#X connect 6 0 13 0;
#X connect 7 0 8 0;
#X connect 8 0 14 0;
#X connect 9 0 11 0;
#X connect 9 0 10 0;
#X connect 9 0 15 0;
#X connect 10 0 17 1;
#X connect 11 0 18 1;
#X connect 12 0 0 0;
#X connect 13 0 1 0;
#X connect 14 0 2 0;
#X connect 15 0 12 0;
#X connect 15 0 13 0;
#X connect 15 0 14 0;
#X connect 16 0 3 0;
#X connect 17 0 5 0;
#X connect 18 0 7 0;
#X restore 944 427 pd modulators;
#X obj 442 209 s attack;
#X obj 875 -9 r attack;
#N canvas 34 59 1234 752 digital 0;
#X obj 84 447 outlet;
#X obj 90 73 adc~ 10;
#X obj 89 181 snapshot~;
#X obj 172 59 loadbang;
#X msg 172 83 1;
#X obj 139 123 metro 100;
#N canvas 394 25 768 851 rolling 0;
#X obj 739 63 inlet;
#X obj 673 513 outlet;
#X obj 674 230 +;
#X obj 675 259 +;
#X obj 675 287 +;
#X obj 736 96 t b f;
#X obj 668 192 f;
#X obj 706 189 f;
#X obj 744 192 f;
#X obj 782 192 f;
#X obj 736 121 t b b b b b b b b b b;
#X obj 674 473 / 10;
#X obj 815 196 f;
#X obj 853 193 f;
#X obj 891 196 f;
#X obj 929 196 f;
#X obj 972 195 f;
#X obj 1010 195 f;
#X obj 675 311 +;
#X obj 675 335 +;
#X obj 675 359 +;
#X obj 675 383 +;
#X obj 675 407 +;
#X obj 675 431 +;
#X connect 0 0 5 0;
#X connect 2 0 3 0;
#X connect 3 0 4 0;
#X connect 4 0 18 0;
#X connect 5 0 10 0;
#X connect 5 1 6 1;
#X connect 6 0 2 0;
#X connect 6 0 7 1;
#X connect 7 0 2 1;
#X connect 7 0 8 1;
#X connect 8 0 3 1;
#X connect 8 0 9 1;
#X connect 9 0 4 1;
#X connect 9 0 12 1;
#X connect 10 0 6 0;
#X connect 10 1 7 0;
#X connect 10 2 8 0;
#X connect 10 3 9 0;
#X connect 10 4 12 0;
#X connect 10 5 13 0;
#X connect 10 6 14 0;
#X connect 10 7 15 0;
#X connect 10 8 16 0;
#X connect 10 9 17 0;
#X connect 11 0 1 0;
#X connect 12 0 13 1;
#X connect 12 0 18 1;
#X connect 13 0 14 1;
#X connect 13 0 19 1;
#X connect 14 0 15 1;
#X connect 14 0 20 1;
#X connect 15 0 16 1;
#X connect 15 0 21 1;
#X connect 16 0 17 1;
#X connect 16 0 22 1;
#X connect 17 0 23 1;
#X connect 18 0 19 0;
#X connect 19 0 20 0;
#X connect 20 0 21 0;
#X connect 21 0 22 0;
#X connect 22 0 23 0;
#X connect 23 0 11 0;
#X restore 89 219 pd rolling average;
#N canvas 34 25 1502 879 rolling 0;
#X obj 739 63 inlet;
#X obj 673 513 outlet;
#X obj 674 230 +;
#X obj 675 259 +;
#X obj 675 287 +;
#X obj 736 96 t b f;
#X obj 668 192 f;
#X obj 706 189 f;
#X obj 744 192 f;
#X obj 782 192 f;
#X obj 736 121 t b b b b b b b b b b;
#X obj 674 473 / 10;
#X obj 815 196 f;
#X obj 853 193 f;
#X obj 891 196 f;
#X obj 929 196 f;
#X obj 972 195 f;
#X obj 1010 195 f;
#X obj 675 311 +;
#X obj 675 335 +;
#X obj 675 359 +;
#X obj 675 383 +;
#X obj 675 407 +;
#X obj 675 431 +;
#X connect 0 0 5 0;
#X connect 2 0 3 0;
#X connect 3 0 4 0;
#X connect 4 0 18 0;
#X connect 5 0 10 0;
#X connect 5 1 6 1;
#X connect 6 0 2 0;
#X connect 6 0 7 1;
#X connect 7 0 2 1;
#X connect 7 0 8 1;
#X connect 8 0 3 1;
#X connect 8 0 9 1;
#X connect 9 0 4 1;
#X connect 9 0 12 1;
#X connect 10 0 6 0;
#X connect 10 1 7 0;
#X connect 10 2 8 0;
#X connect 10 3 9 0;
#X connect 10 4 12 0;
#X connect 10 5 13 0;
#X connect 10 6 14 0;
#X connect 10 7 15 0;
#X connect 10 8 16 0;
#X connect 10 9 17 0;
#X connect 11 0 1 0;
#X connect 12 0 13 1;
#X connect 12 0 18 1;
#X connect 13 0 14 1;
#X connect 13 0 19 1;
#X connect 14 0 15 1;
#X connect 14 0 20 1;
#X connect 15 0 16 1;
#X connect 15 0 21 1;
#X connect 16 0 17 1;
#X connect 16 0 22 1;
#X connect 17 0 23 1;
#X connect 18 0 19 0;
#X connect 19 0 20 0;
#X connect 20 0 21 0;
#X connect 21 0 22 0;
#X connect 22 0 23 0;
#X connect 23 0 11 0;
#X restore 90 254 pd rolling average;
#X obj 91 284 / 0.83;
#X floatatom 142 347 5 0 0 0 - - - 0;
#X obj 86 371 log 10;
#X obj 91 338 * 10;
#X obj 87 400 clip 0 1;
#X connect 1 0 2 0;
#X connect 2 0 6 0;
#X connect 3 0 4 0;
#X connect 4 0 5 0;
#X connect 5 0 2 0;
#X connect 6 0 7 0;
#X connect 7 0 8 0;
#X connect 8 0 11 0;
#X connect 9 0 10 0;
#X connect 10 0 12 0;
#X connect 11 0 10 0;
#X connect 12 0 0 0;
#X restore 950 401 pd digital control;
#X text 831 579 Loop and idle mode;
#X text 57 406 Bonk attack detection;
#X text 425 465 Attacks;
#N canvas 298 25 1285 752 bars 0;
#X msg 89 99 130;
#X msg 123 99 60;
#X obj 89 132 /, f 5;
#X obj 50 25 loadbang;
#X floatatom 89 165 5 0 0 0 - - - 0;
#X obj 49 197 /, f 5;
#X obj 50 58 t b b b;
#X msg 50 91 1;
#X floatatom 49 230 5 0 0 0 - - - 0;
#X text 113 229 duração semínima em ms;
#X floatatom 49 295 5 0 0 0 - - - 0;
#X obj 49 262 * 4;
#X text 113 290 duração compasso em ms;
#X obj 49 327 * 44100;
#X floatatom 49 360 10 0 0 0 - - - 0;
#X text 127 367 duração compasso em samples;
#X obj 51 394 s barDuration;
#X connect 0 0 2 0;
#X connect 1 0 2 1;
#X connect 2 0 4 0;
#X connect 3 0 6 0;
#X connect 4 0 5 1;
#X connect 5 0 8 0;
#X connect 6 0 7 0;
#X connect 6 1 0 0;
#X connect 6 2 1 0;
#X connect 7 0 5 0;
#X connect 8 0 11 0;
#X connect 10 0 13 0;
#X connect 11 0 10 0;
#X connect 13 0 14 0;
#X connect 14 0 16 0;
#X restore 234 623 pd bars math;
#X connect 1 0 14 0;
#X connect 2 0 1 0;
#X connect 4 0 3 0;
#X connect 5 0 7 0;
#X connect 6 0 15 0;
#X connect 6 1 15 1;
#X connect 7 0 3 0;
#X connect 8 0 58 0;
#X connect 9 1 56 0;
#X connect 11 0 9 0;
#X connect 11 0 57 0;
#X connect 12 0 9 0;
#X connect 12 0 57 0;
#X connect 13 0 16 0;
#X connect 13 0 11 0;
#X connect 13 0 12 0;
#X connect 14 0 20 0;
#X connect 14 0 20 2;
#X connect 14 0 60 0;
#X connect 14 0 20 1;
#X connect 14 0 20 3;
#X connect 15 0 2 0;
#X connect 15 1 1 1;
#X connect 15 2 1 2;
#X connect 16 0 9 0;
#X connect 16 0 57 0;
#X connect 17 0 9 0;
#X connect 17 1 57 0;
#X connect 18 0 9 0;
#X connect 18 2 57 0;
#X connect 19 0 9 0;
#X connect 19 0 57 0;
#X connect 21 0 77 0;
#X connect 22 0 69 0;
#X connect 23 0 52 1;
#X connect 23 0 71 0;
#X connect 23 0 76 0;
#X connect 23 1 44 0;
#X connect 24 0 76 0;
#X connect 24 1 44 0;
#X connect 26 0 23 0;
#X connect 27 0 26 0;
#X connect 28 0 29 0;
#X connect 29 0 27 0;
#X connect 30 0 27 1;
#X connect 31 0 28 1;
#X connect 32 0 68 0;
#X connect 33 0 34 0;
#X connect 34 0 32 0;
#X connect 35 0 68 0;
#X connect 37 0 24 0;
#X connect 38 0 37 0;
#X connect 39 0 40 0;
#X connect 40 0 38 0;
#X connect 41 0 38 1;
#X connect 42 0 39 1;
#X connect 43 0 53 0;
#X connect 43 1 54 0;
#X connect 44 0 45 0;
#X connect 45 0 43 0;
#X connect 46 0 47 0;
#X connect 46 0 61 0;
#X connect 46 1 48 0;
#X connect 46 1 61 0;
#X connect 47 0 25 0;
#X connect 47 1 25 1;
#X connect 48 0 25 2;
#X connect 48 1 25 3;
#X connect 49 0 23 0;
#X connect 50 0 24 0;
#X connect 51 0 33 0;
#X connect 52 0 44 0;
#X connect 53 0 28 0;
#X connect 54 0 39 0;
#X connect 56 0 10 0;
#X connect 57 1 56 1;
#X connect 58 0 65 0;
#X connect 58 1 62 0;
#X connect 58 2 22 0;
#X connect 59 0 70 0;
#X connect 62 0 63 0;
#X connect 62 1 64 0;
#X connect 63 0 65 1;
#X connect 64 0 65 1;
#X connect 65 0 6 0;
#X connect 65 0 80 0;
#X connect 66 0 35 0;
#X connect 67 0 66 0;
#X connect 68 0 74 0;
#X connect 69 0 21 0;
#X connect 70 0 46 0;
#X connect 71 0 78 0;
#X connect 72 0 73 0;
#X connect 73 0 71 1;
#X connect 74 0 76 0;
#X connect 75 0 46 0;
#X connect 76 0 75 0;
#X connect 77 0 6 1;
#X connect 78 0 76 0;
#X connect 79 0 46 1;
#X connect 79 1 47 1;
#X connect 79 2 48 1;
#X connect 81 0 52 0;
#X connect 82 0 75 1;
