#N canvas 34 59 1158 742 12;
#X obj 77 57 inlet, f 11;
#X obj 83 439 bng 15 250 50 0 empty empty empty 17 7 0 10 #fcfcfc #000000
#000000;
#X obj 98 482 tabplay~ buffer16;
#X obj 79 233 bng 15 250 50 0 empty empty empty 17 7 0 10 #fcfcfc #000000
#000000;
#X obj 79 253 t b b;
#X msg 114 406 symbol buffer\$1;
#X msg 115 434 set \$1;
#X obj 90 639 outlet~;
#X obj 114 348 + 1;
#N canvas 0 25 768 851 random 0;
#X obj 129 45 inlet;
#X obj 90 521 outlet;
#X obj 401 34 inlet;
#X obj 128 80 spigot;
#X obj 573 89 spigot;
#X msg 392 103 1;
#X msg 427 102 0;
#X msg 511 105 1;
#X msg 472 103 0;
#X obj 401 60 sel 2 1;
#X obj 521 510 + 44;
#X floatatom 230 243 5 0 0 0 - - - 0;
#X obj 111 418 f;
#X obj 198 288 f;
#X obj 163 324 ==;
#X obj 158 363 sel 0 1;
#X text 229 272 numero anterior;
#X obj 291 209 loadbang;
#X obj 174 163 t f f;
#X obj 207 197 t f b;
#X obj 157 196 t f f;
#X obj 174 129 random 43;
#X obj 295 245 random 43;
#X floatatom 680 254 5 0 0 0 - - - 0;
#X obj 522 469 f;
#X obj 648 299 f;
#X obj 613 335 ==;
#X obj 605 411 bng 15 250 50 0 empty empty empty 17 7 0 10 #fcfcfc
#000000 #000000;
#X obj 608 374 sel 0 1;
#X text 679 283 numero anterior;
#X obj 741 220 loadbang;
#X obj 624 174 t f f;
#X obj 657 208 t f b;
#X obj 607 207 t f f;
#X obj 624 140 random 20;
#X obj 745 256 random 20;
#X obj 686 84 bng 15 250 50 0 empty empty empty 17 7 0 10 #fcfcfc #000000
#000000;
#X obj 209 97 bng 15 250 50 0 empty empty empty 17 7 0 10 #fcfcfc #000000
#000000;
#X connect 0 0 3 0;
#X connect 0 0 4 0;
#X connect 2 0 9 0;
#X connect 3 0 21 0;
#X connect 4 0 34 0;
#X connect 5 0 3 1;
#X connect 6 0 4 1;
#X connect 7 0 4 1;
#X connect 8 0 3 1;
#X connect 9 0 5 0;
#X connect 9 0 6 0;
#X connect 9 1 7 0;
#X connect 9 1 8 0;
#X connect 10 0 1 0;
#X connect 11 0 13 1;
#X connect 12 0 1 0;
#X connect 13 0 14 1;
#X connect 14 0 15 0;
#X connect 15 0 12 0;
#X connect 15 1 21 0;
#X connect 17 0 22 0;
#X connect 18 0 20 0;
#X connect 18 1 19 0;
#X connect 19 0 11 0;
#X connect 19 1 13 0;
#X connect 20 0 14 0;
#X connect 20 1 12 1;
#X connect 21 0 18 0;
#X connect 22 0 13 1;
#X connect 23 0 25 1;
#X connect 24 0 10 0;
#X connect 25 0 26 1;
#X connect 26 0 28 0;
#X connect 27 0 24 0;
#X connect 28 0 27 0;
#X connect 28 1 34 0;
#X connect 30 0 35 0;
#X connect 31 0 33 0;
#X connect 31 1 32 0;
#X connect 32 0 23 0;
#X connect 32 1 25 0;
#X connect 33 0 26 0;
#X connect 33 1 24 1;
#X connect 34 0 31 0;
#X connect 35 0 25 1;
#X connect 36 0 34 0;
#X connect 37 0 21 0;
#X restore 113 276 pd random numbers;
#X obj 97 556 *~;
#X obj 262 538 vline~;
#X obj 143 172 sel 0;
#X msg 430 460 \$1 5;
#X obj 281 410 pack 0 \$2;
#X msg 292 462 \$1 \$2;
#X obj 340 374 r release;
#X obj 76 103 unpack 0 0;
#X obj 429 374 / 127;
#X obj 308 189 t f f;
#X obj 76 134 swap, f 10;
#X obj 431 415 expr $f1 * $f1;
#X obj 95 590 *~ 1.1;
#X connect 0 0 17 0;
#X connect 1 0 2 0;
#X connect 2 0 10 0;
#X connect 3 0 4 0;
#X connect 4 0 1 0;
#X connect 4 1 9 0;
#X connect 5 0 6 0;
#X connect 6 0 2 0;
#X connect 8 0 5 0;
#X connect 9 0 8 0;
#X connect 10 0 22 0;
#X connect 11 0 10 1;
#X connect 12 0 14 0;
#X connect 12 1 19 0;
#X connect 13 0 11 0;
#X connect 14 0 15 0;
#X connect 15 0 11 0;
#X connect 16 0 14 1;
#X connect 17 0 20 0;
#X connect 17 1 20 1;
#X connect 18 0 21 0;
#X connect 19 0 18 0;
#X connect 19 1 3 0;
#X connect 20 0 12 0;
#X connect 20 1 9 1;
#X connect 21 0 13 0;
#X connect 22 0 7 0;
