#N canvas 41 25 1446 803 12;
#X obj 422 484 bonk~;
#X msg 681 680 learn 0;
#X obj 109 202 loadbang;
#X obj 710 422 unpack 0 0 0;
#X obj 575 475 spigot;
#X msg 612 438 1;
#X obj 634 608 t b b 0;
#X floatatom 845 556 0 0 0 0 - - - 0;
#X msg 707 461 bang;
#X obj 845 531 + 1;
#X obj 707 493 float, f 14;
#X msg 672 460 -1;
#X obj 634 578 sel 40;
#X obj 250 481 bonk~;
#X obj 369 380 adc~ 1 3;
#X msg 361 686 learn 0;
#X obj 84 577 unpack 0 0 0;
#X obj 68 510 spigot;
#X msg 106 460 1;
#X obj 339 652 t b b 0;
#X floatatom 338 591 0 0 0 0 - - - 0;
#X msg 281 542 bang;
#X obj 338 566 + 1;
#X obj 281 567 float;
#X msg 333 541 -1;
#X obj 339 622 sel 40;
#X msg 633 645 write templates2.txt;
#X msg 246 712 write templates1.txt;
#X obj 23 576 print 1;
#X obj 571 713 print 2;
#N canvas 41 25 1446 775 bonk 1;
#X msg 384 192 learn 20;
#X msg 381 294 mask 4 0.7;
#X msg 379 333 attack-frames 1;
#X msg 382 258 thresh 2 30;
#X msg 383 225 debounce 10;
#X obj 245 437 outlet;
#X obj 249 97 inlet;
#X connect 0 0 5 0;
#X connect 1 0 5 0;
#X connect 2 0 5 0;
#X connect 3 0 5 0;
#X connect 4 0 5 0;
#X connect 6 0 0 0;
#X connect 6 0 4 0;
#X connect 6 0 3 0;
#X connect 6 0 1 0;
#X connect 6 0 2 0;
#X restore 206 240 pd bonk settings;
#X obj 620 374 loadbang;
#X connect 0 1 4 0;
#X connect 1 0 0 0;
#X connect 2 0 18 0;
#X connect 2 0 24 0;
#X connect 2 0 30 0;
#X connect 3 0 8 0;
#X connect 4 0 3 0;
#X connect 4 0 29 0;
#X connect 5 0 4 1;
#X connect 6 0 26 0;
#X connect 6 1 1 0;
#X connect 6 2 4 1;
#X connect 7 0 12 0;
#X connect 8 0 10 0;
#X connect 9 0 7 0;
#X connect 9 0 10 1;
#X connect 10 0 9 0;
#X connect 11 0 10 0;
#X connect 12 0 6 0;
#X connect 13 1 17 0;
#X connect 14 0 13 0;
#X connect 14 1 0 0;
#X connect 15 0 13 0;
#X connect 16 0 21 0;
#X connect 17 0 16 0;
#X connect 17 0 28 0;
#X connect 18 0 17 1;
#X connect 19 0 27 0;
#X connect 19 1 15 0;
#X connect 19 2 17 1;
#X connect 20 0 25 0;
#X connect 21 0 23 0;
#X connect 22 0 20 0;
#X connect 22 0 23 1;
#X connect 23 0 22 0;
#X connect 24 0 23 0;
#X connect 25 0 19 0;
#X connect 26 0 0 0;
#X connect 27 0 13 0;
#X connect 30 0 13 0;
#X connect 30 0 0 0;
#X connect 31 0 5 0;
#X connect 31 0 11 0;
